  0
SECTION
  2
BLOCKS
  0
ENDSEC
  0
SECTION
  2
ENTITIES
  0
LINE
  8
0
 10
10.16
 20
128.5
 11
0
 21
128.5
  0
LINE
  8
0
 10
0
 20
128.5
 11
0
 21
0
  0
LINE
  8
0
 10
0
 20
0
 11
10.16
 21
0
  0
LINE
  8
0
 10
10.16
 20
0
 11
10.16
 21
128.5
  0
LINE
  8
0
 10
0.199997
 20
0.199997
 11
0.199997
 21
128.3
  0
LINE
  8
0
 10
0.199997
 20
128.3
 11
9.95999
 21
128.3
  0
LINE
  8
0
 10
9.95999
 20
128.3
 11
9.95999
 21
0.199997
  0
LINE
  8
0
 10
9.95999
 20
0.199997
 11
0.199997
 21
0.199997
  0
LINE
  8
0
 10
5.12997
 20
113.95
 11
5.57999
 21
113.95
  0
LINE
  8
0
 10
5.57999
 20
113.95
 11
5.57999
 21
114.05
  0
LINE
  8
0
 10
5.57999
 20
114.05
 11
5.12997
 21
114.05
  0
LINE
  8
0
 10
5.12997
 20
114.05
 11
5.12997
 21
114.5
  0
LINE
  8
0
 10
5.12997
 20
114.5
 11
5.03
 21
114.5
  0
LINE
  8
0
 10
5.03
 20
114.5
 11
5.03
 21
114.05
  0
LINE
  8
0
 10
5.03
 20
114.05
 11
4.57999
 21
114.05
  0
LINE
  8
0
 10
4.57999
 20
114.05
 11
4.57999
 21
113.95
  0
LINE
  8
0
 10
4.57999
 20
113.95
 11
5.03
 21
113.95
  0
LINE
  8
0
 10
5.03
 20
113.95
 11
5.03
 21
113.5
  0
LINE
  8
0
 10
5.03
 20
113.5
 11
5.12997
 21
113.5
  0
LINE
  8
0
 10
5.12997
 20
113.5
 11
5.12997
 21
113.95
  0
LINE
  8
0
 10
5.12997
 20
99.95
 11
5.57999
 21
99.95
  0
LINE
  8
0
 10
5.57999
 20
99.95
 11
5.57999
 21
100.05
  0
LINE
  8
0
 10
5.57999
 20
100.05
 11
5.12997
 21
100.05
  0
LINE
  8
0
 10
5.12997
 20
100.05
 11
5.12997
 21
100.5
  0
LINE
  8
0
 10
5.12997
 20
100.5
 11
5.03
 21
100.5
  0
LINE
  8
0
 10
5.03
 20
100.5
 11
5.03
 21
100.05
  0
LINE
  8
0
 10
5.03
 20
100.05
 11
4.57999
 21
100.05
  0
LINE
  8
0
 10
4.57999
 20
100.05
 11
4.57999
 21
99.95
  0
LINE
  8
0
 10
4.57999
 20
99.95
 11
5.03
 21
99.95
  0
LINE
  8
0
 10
5.03
 20
99.95
 11
5.03
 21
99.5
  0
LINE
  8
0
 10
5.03
 20
99.5
 11
5.12997
 21
99.5
  0
LINE
  8
0
 10
5.12997
 20
99.5
 11
5.12997
 21
99.95
  0
LINE
  8
0
 10
5.12997
 20
85.95
 11
5.57999
 21
85.95
  0
LINE
  8
0
 10
5.57999
 20
85.95
 11
5.57999
 21
86.05
  0
LINE
  8
0
 10
5.57999
 20
86.05
 11
5.12997
 21
86.05
  0
LINE
  8
0
 10
5.12997
 20
86.05
 11
5.12997
 21
86.5
  0
LINE
  8
0
 10
5.12997
 20
86.5
 11
5.03
 21
86.5
  0
LINE
  8
0
 10
5.03
 20
86.5
 11
5.03
 21
86.05
  0
LINE
  8
0
 10
5.03
 20
86.05
 11
4.57999
 21
86.05
  0
LINE
  8
0
 10
4.57999
 20
86.05
 11
4.57999
 21
85.95
  0
LINE
  8
0
 10
4.57999
 20
85.95
 11
5.03
 21
85.95
  0
LINE
  8
0
 10
5.03
 20
85.95
 11
5.03
 21
85.5
  0
LINE
  8
0
 10
5.03
 20
85.5
 11
5.12997
 21
85.5
  0
LINE
  8
0
 10
5.12997
 20
85.5
 11
5.12997
 21
85.95
  0
LINE
  8
0
 10
5.12997
 20
71.95
 11
5.57999
 21
71.95
  0
LINE
  8
0
 10
5.57999
 20
71.95
 11
5.57999
 21
72.05
  0
LINE
  8
0
 10
5.57999
 20
72.05
 11
5.12997
 21
72.05
  0
LINE
  8
0
 10
5.12997
 20
72.05
 11
5.12997
 21
72.5
  0
LINE
  8
0
 10
5.12997
 20
72.5
 11
5.03
 21
72.5
  0
LINE
  8
0
 10
5.03
 20
72.5
 11
5.03
 21
72.05
  0
LINE
  8
0
 10
5.03
 20
72.05
 11
4.57999
 21
72.05
  0
LINE
  8
0
 10
4.57999
 20
72.05
 11
4.57999
 21
71.95
  0
LINE
  8
0
 10
4.57999
 20
71.95
 11
5.03
 21
71.95
  0
LINE
  8
0
 10
5.03
 20
71.95
 11
5.03
 21
71.5
  0
LINE
  8
0
 10
5.03
 20
71.5
 11
5.12997
 21
71.5
  0
LINE
  8
0
 10
5.12997
 20
71.5
 11
5.12997
 21
71.95
  0
LINE
  8
0
 10
5.12997
 20
57.95
 11
5.57999
 21
57.95
  0
LINE
  8
0
 10
5.57999
 20
57.95
 11
5.57999
 21
58.05
  0
LINE
  8
0
 10
5.57999
 20
58.05
 11
5.12997
 21
58.05
  0
LINE
  8
0
 10
5.12997
 20
58.05
 11
5.12997
 21
58.5
  0
LINE
  8
0
 10
5.12997
 20
58.5
 11
5.03
 21
58.5
  0
LINE
  8
0
 10
5.03
 20
58.5
 11
5.03
 21
58.05
  0
LINE
  8
0
 10
5.03
 20
58.05
 11
4.57999
 21
58.05
  0
LINE
  8
0
 10
4.57999
 20
58.05
 11
4.57999
 21
57.95
  0
LINE
  8
0
 10
4.57999
 20
57.95
 11
5.03
 21
57.95
  0
LINE
  8
0
 10
5.03
 20
57.95
 11
5.03
 21
57.5
  0
LINE
  8
0
 10
5.03
 20
57.5
 11
5.12997
 21
57.5
  0
LINE
  8
0
 10
5.12997
 20
57.5
 11
5.12997
 21
57.95
  0
LINE
  8
0
 10
5.12997
 20
43.95
 11
5.57999
 21
43.95
  0
LINE
  8
0
 10
5.57999
 20
43.95
 11
5.57999
 21
44.05
  0
LINE
  8
0
 10
5.57999
 20
44.05
 11
5.12997
 21
44.05
  0
LINE
  8
0
 10
5.12997
 20
44.05
 11
5.12997
 21
44.5
  0
LINE
  8
0
 10
5.12997
 20
44.5
 11
5.03
 21
44.5
  0
LINE
  8
0
 10
5.03
 20
44.5
 11
5.03
 21
44.05
  0
LINE
  8
0
 10
5.03
 20
44.05
 11
4.57999
 21
44.05
  0
LINE
  8
0
 10
4.57999
 20
44.05
 11
4.57999
 21
43.95
  0
LINE
  8
0
 10
4.57999
 20
43.95
 11
5.03
 21
43.95
  0
LINE
  8
0
 10
5.03
 20
43.95
 11
5.03
 21
43.5
  0
LINE
  8
0
 10
5.03
 20
43.5
 11
5.12997
 21
43.5
  0
LINE
  8
0
 10
5.12997
 20
43.5
 11
5.12997
 21
43.95
  0
LINE
  8
0
 10
5.12997
 20
29.95
 11
5.57999
 21
29.95
  0
LINE
  8
0
 10
5.57999
 20
29.95
 11
5.57999
 21
30.05
  0
LINE
  8
0
 10
5.57999
 20
30.05
 11
5.12997
 21
30.05
  0
LINE
  8
0
 10
5.12997
 20
30.05
 11
5.12997
 21
30.5
  0
LINE
  8
0
 10
5.12997
 20
30.5
 11
5.03
 21
30.5
  0
LINE
  8
0
 10
5.03
 20
30.5
 11
5.03
 21
30.05
  0
LINE
  8
0
 10
5.03
 20
30.05
 11
4.57999
 21
30.05
  0
LINE
  8
0
 10
4.57999
 20
30.05
 11
4.57999
 21
29.95
  0
LINE
  8
0
 10
4.57999
 20
29.95
 11
5.03
 21
29.95
  0
LINE
  8
0
 10
5.03
 20
29.95
 11
5.03
 21
29.5
  0
LINE
  8
0
 10
5.03
 20
29.5
 11
5.12997
 21
29.5
  0
LINE
  8
0
 10
5.12997
 20
29.5
 11
5.12997
 21
29.95
  0
LINE
  8
0
 10
5.12997
 20
15.95
 11
5.57999
 21
15.95
  0
LINE
  8
0
 10
5.57999
 20
15.95
 11
5.57999
 21
16.05
  0
LINE
  8
0
 10
5.57999
 20
16.05
 11
5.12997
 21
16.05
  0
LINE
  8
0
 10
5.12997
 20
16.05
 11
5.12997
 21
16.5
  0
LINE
  8
0
 10
5.12997
 20
16.5
 11
5.03
 21
16.5
  0
LINE
  8
0
 10
5.03
 20
16.5
 11
5.03
 21
16.05
  0
LINE
  8
0
 10
5.03
 20
16.05
 11
4.57999
 21
16.05
  0
LINE
  8
0
 10
4.57999
 20
16.05
 11
4.57999
 21
15.95
  0
LINE
  8
0
 10
4.57999
 20
15.95
 11
5.03
 21
15.95
  0
LINE
  8
0
 10
5.03
 20
15.95
 11
5.03
 21
15.5
  0
LINE
  8
0
 10
5.03
 20
15.5
 11
5.12997
 21
15.5
  0
LINE
  8
0
 10
5.12997
 20
15.5
 11
5.12997
 21
15.95
  0
ENDSEC
  0
SECTION
  2
OBJECTS
  0
DICTIONARY
  0
ENDSEC
  0
EOF
