<?xml version="1.0" standalone="no"?>
<!DOCTYPE svg PUBLIC "-//W3C//DTD SVG 1.1//EN" "http://www.w3.org/Graphics/SVG/1.1/DTD/svg11.dtd">
<svg width="11mm" height="129mm" viewBox="0 -129 11 129" xmlns="http://www.w3.org/2000/svg" version="1.1">
<title>OpenSCAD Model</title>
<path d="
M 10.16,-128.5 L 0,-128.5 L 0,-0 L 10.16,-0 z
M 0.199997,-0.199997 L 0.199997,-128.3 L 9.95999,-128.3 L 9.95999,-0.199997 z
M 5.12997,-113.95 L 5.57999,-113.95 L 5.57999,-114.05 L 5.12997,-114.05 L 5.12997,-114.5 L 5.03,-114.5
 L 5.03,-114.05 L 4.57999,-114.05 L 4.57999,-113.95 L 5.03,-113.95 L 5.03,-113.5 L 5.12997,-113.5
 z
M 5.12997,-99.95 L 5.57999,-99.95 L 5.57999,-100.05 L 5.12997,-100.05 L 5.12997,-100.5 L 5.03,-100.5
 L 5.03,-100.05 L 4.57999,-100.05 L 4.57999,-99.95 L 5.03,-99.95 L 5.03,-99.5 L 5.12997,-99.5
 z
M 5.12997,-85.95 L 5.57999,-85.95 L 5.57999,-86.05 L 5.12997,-86.05 L 5.12997,-86.5 L 5.03,-86.5
 L 5.03,-86.05 L 4.57999,-86.05 L 4.57999,-85.95 L 5.03,-85.95 L 5.03,-85.5 L 5.12997,-85.5
 z
M 5.12997,-71.95 L 5.57999,-71.95 L 5.57999,-72.05 L 5.12997,-72.05 L 5.12997,-72.5 L 5.03,-72.5
 L 5.03,-72.05 L 4.57999,-72.05 L 4.57999,-71.95 L 5.03,-71.95 L 5.03,-71.5 L 5.12997,-71.5
 z
M 5.12997,-57.95 L 5.57999,-57.95 L 5.57999,-58.05 L 5.12997,-58.05 L 5.12997,-58.5 L 5.03,-58.5
 L 5.03,-58.05 L 4.57999,-58.05 L 4.57999,-57.95 L 5.03,-57.95 L 5.03,-57.5 L 5.12997,-57.5
 z
M 5.12997,-43.95 L 5.57999,-43.95 L 5.57999,-44.05 L 5.12997,-44.05 L 5.12997,-44.5 L 5.03,-44.5
 L 5.03,-44.05 L 4.57999,-44.05 L 4.57999,-43.95 L 5.03,-43.95 L 5.03,-43.5 L 5.12997,-43.5
 z
M 5.12997,-29.95 L 5.57999,-29.95 L 5.57999,-30.05 L 5.12997,-30.05 L 5.12997,-30.5 L 5.03,-30.5
 L 5.03,-30.05 L 4.57999,-30.05 L 4.57999,-29.95 L 5.03,-29.95 L 5.03,-29.5 L 5.12997,-29.5
 z
M 5.12997,-15.95 L 5.57999,-15.95 L 5.57999,-16.05 L 5.12997,-16.05 L 5.12997,-16.5 L 5.03,-16.5
 L 5.03,-16.05 L 4.57999,-16.05 L 4.57999,-15.95 L 5.03,-15.95 L 5.03,-15.5 L 5.12997,-15.5
 z
" stroke="black" fill="lightgray" stroke-width="0.5"/>
</svg>
