<?xml version="1.0" standalone="no"?>
<!DOCTYPE svg PUBLIC "-//W3C//DTD SVG 1.1//EN" "http://www.w3.org/Graphics/SVG/1.1/DTD/svg11.dtd">
<svg width="31mm" height="129mm" viewBox="0 -129 31 129" xmlns="http://www.w3.org/2000/svg" version="1.1">
<title>OpenSCAD Model</title>
<path d="
M 30.48,-128.5 L 0,-128.5 L 0,-0 L 30.48,-0 z
M 0.199997,-0.199997 L 0.199997,-128.3 L 30.28,-128.3 L 30.28,-0.199997 z
M 8.04999,-112.95 L 8.5,-112.95 L 8.5,-113.05 L 8.04999,-113.05 L 8.04999,-113.5 L 7.95001,-113.5
 L 7.95001,-113.05 L 7.5,-113.05 L 7.5,-112.95 L 7.95001,-112.95 L 7.95001,-112.5 L 8.04999,-112.5
 z
M 22.53,-112.95 L 22.98,-112.95 L 22.98,-113.05 L 22.53,-113.05 L 22.53,-113.5 L 22.43,-113.5
 L 22.43,-113.05 L 21.98,-113.05 L 21.98,-112.95 L 22.43,-112.95 L 22.43,-112.5 L 22.53,-112.5
 z
M 8.04999,-96.95 L 8.5,-96.95 L 8.5,-97.05 L 8.04999,-97.05 L 8.04999,-97.5 L 7.95001,-97.5
 L 7.95001,-97.05 L 7.5,-97.05 L 7.5,-96.95 L 7.95001,-96.95 L 7.95001,-96.5 L 8.04999,-96.5
 z
M 22.53,-96.95 L 22.98,-96.95 L 22.98,-97.05 L 22.53,-97.05 L 22.53,-97.5 L 22.43,-97.5
 L 22.43,-97.05 L 21.98,-97.05 L 21.98,-96.95 L 22.43,-96.95 L 22.43,-96.5 L 22.53,-96.5
 z
M 15.29,-77.95 L 15.74,-77.95 L 15.74,-78.05 L 15.29,-78.05 L 15.29,-78.5 L 15.19,-78.5
 L 15.19,-78.05 L 14.74,-78.05 L 14.74,-77.95 L 15.19,-77.95 L 15.19,-77.5 L 15.29,-77.5
 z
M 15.29,-57.95 L 15.74,-57.95 L 15.74,-58.05 L 15.29,-58.05 L 15.29,-58.5 L 15.19,-58.5
 L 15.19,-58.05 L 14.74,-58.05 L 14.74,-57.95 L 15.19,-57.95 L 15.19,-57.5 L 15.29,-57.5
 z
M 15.29,-37.95 L 15.74,-37.95 L 15.74,-38.05 L 15.29,-38.05 L 15.29,-38.5 L 15.19,-38.5
 L 15.19,-38.05 L 14.74,-38.05 L 14.74,-37.95 L 15.19,-37.95 L 15.19,-37.5 L 15.29,-37.5
 z
M 15.29,-17.95 L 15.74,-17.95 L 15.74,-18.05 L 15.29,-18.05 L 15.29,-18.5 L 15.19,-18.5
 L 15.19,-18.05 L 14.74,-18.05 L 14.74,-17.95 L 15.19,-17.95 L 15.19,-17.5 L 15.29,-17.5
 z
" stroke="black" fill="lightgray" stroke-width="0.5"/>
</svg>
