<?xml version="1.0" standalone="no"?>
<!DOCTYPE svg PUBLIC "-//W3C//DTD SVG 1.1//EN" "http://www.w3.org/Graphics/SVG/1.1/DTD/svg11.dtd">
<svg width="41mm" height="129mm" viewBox="0 -129 41 129" xmlns="http://www.w3.org/2000/svg" version="1.1">
<title>OpenSCAD Model</title>
<path d="
M 40.64,-128.5 L 0,-128.5 L 0,-0 L 40.64,-0 z
M 31.96,-123.488 L 31.4656,-123.566 L 31.0195,-123.793 L 30.6656,-124.147 L 30.4383,-124.593 L 30.36,-125.087
 L 30.4383,-125.582 L 30.6656,-126.028 L 31.0195,-126.382 L 31.4656,-126.609 L 31.96,-126.688 L 33.84,-126.688
 L 34.3344,-126.609 L 34.7805,-126.382 L 35.1344,-126.028 L 35.3617,-125.582 L 35.44,-125.087 L 35.3617,-124.593
 L 35.1344,-124.147 L 34.7805,-123.793 L 34.3344,-123.566 L 33.84,-123.488 z
M 6.56,-123.488 L 6.06557,-123.566 L 5.61954,-123.793 L 5.26556,-124.147 L 5.0383,-124.593 L 4.95999,-125.087
 L 5.0383,-125.582 L 5.26556,-126.028 L 5.61954,-126.382 L 6.06557,-126.609 L 6.56,-126.688 L 8.43999,-126.688
 L 8.93442,-126.609 L 9.38045,-126.382 L 9.73442,-126.028 L 9.96169,-125.582 L 10.04,-125.087 L 9.96169,-124.593
 L 9.73442,-124.147 L 9.38045,-123.793 L 8.93442,-123.566 L 8.43999,-123.488 z
M 9.41336,-101.576 L 8.84117,-101.714 L 8.29753,-101.939 L 7.79579,-102.246 L 7.34834,-102.628 L 6.96617,-103.076
 L 6.65872,-103.578 L 6.43353,-104.121 L 6.29616,-104.693 L 6.25,-105.28 L 6.29616,-105.867 L 6.43353,-106.439
 L 6.65872,-106.982 L 6.96617,-107.484 L 7.34834,-107.932 L 7.79579,-108.314 L 8.29753,-108.621 L 8.84117,-108.846
 L 9.41336,-108.984 L 10,-109.03 L 10.5866,-108.984 L 11.1588,-108.846 L 11.7025,-108.621 L 12.2042,-108.314
 L 12.6516,-107.932 L 13.0338,-107.484 L 13.3413,-106.982 L 13.5665,-106.439 L 13.7038,-105.867 L 13.75,-105.28
 L 13.7038,-104.693 L 13.5665,-104.121 L 13.3413,-103.578 L 13.0338,-103.076 L 12.6516,-102.628 L 12.2042,-102.246
 L 11.7025,-101.939 L 11.1588,-101.714 L 10.5866,-101.576 L 10,-101.53 z
M 30.1316,-102.07 L 29.6357,-102.189 L 29.1645,-102.384 L 28.7297,-102.651 L 28.3419,-102.982 L 28.0107,-103.37
 L 27.7442,-103.805 L 27.5491,-104.276 L 27.43,-104.772 L 27.39,-105.28 L 27.43,-105.788 L 27.5491,-106.284
 L 27.7442,-106.755 L 28.0107,-107.19 L 28.3419,-107.578 L 28.7297,-107.909 L 29.1645,-108.176 L 29.6357,-108.371
 L 30.1316,-108.49 L 30.64,-108.53 L 31.1484,-108.49 L 31.6443,-108.371 L 32.1155,-108.176 L 32.5503,-107.909
 L 32.9381,-107.578 L 33.2693,-107.19 L 33.5358,-106.755 L 33.7309,-106.284 L 33.85,-105.788 L 33.89,-105.28
 L 33.85,-104.772 L 33.7309,-104.276 L 33.5358,-103.805 L 33.2693,-103.37 L 32.9381,-102.982 L 32.5503,-102.651
 L 32.1155,-102.384 L 31.6443,-102.189 L 31.1484,-102.07 L 30.64,-102.03 z
M 9.41336,-81.2562 L 8.84117,-81.3935 L 8.29753,-81.6187 L 7.79579,-81.9262 L 7.34834,-82.3083 L 6.96617,-82.7558
 L 6.65872,-83.2575 L 6.43353,-83.8012 L 6.29616,-84.3734 L 6.25,-84.96 L 6.29616,-85.5466 L 6.43353,-86.1188
 L 6.65872,-86.6625 L 6.96617,-87.1642 L 7.34834,-87.6116 L 7.79579,-87.9938 L 8.29753,-88.3013 L 8.84117,-88.5265
 L 9.41336,-88.6638 L 10,-88.71 L 10.5866,-88.6638 L 11.1588,-88.5265 L 11.7025,-88.3013 L 12.2042,-87.9938
 L 12.6516,-87.6116 L 13.0338,-87.1642 L 13.3413,-86.6625 L 13.5665,-86.1188 L 13.7038,-85.5466 L 13.75,-84.96
 L 13.7038,-84.3734 L 13.5665,-83.8012 L 13.3413,-83.2575 L 13.0338,-82.7558 L 12.6516,-82.3083 L 12.2042,-81.9262
 L 11.7025,-81.6187 L 11.1588,-81.3935 L 10.5866,-81.2562 L 10,-81.21 z
M 30.1316,-81.75 L 29.6357,-81.8691 L 29.1645,-82.0642 L 28.7297,-82.3307 L 28.3419,-82.6619 L 28.0107,-83.0497
 L 27.7442,-83.4845 L 27.5491,-83.9557 L 27.43,-84.4516 L 27.39,-84.96 L 27.43,-85.4684 L 27.5491,-85.9643
 L 27.7442,-86.4355 L 28.0107,-86.8703 L 28.3419,-87.2581 L 28.7297,-87.5893 L 29.1645,-87.8558 L 29.6357,-88.0509
 L 30.1316,-88.17 L 30.64,-88.21 L 31.1484,-88.17 L 31.6443,-88.0509 L 32.1155,-87.8558 L 32.5503,-87.5893
 L 32.9381,-87.2581 L 33.2693,-86.8703 L 33.5358,-86.4355 L 33.7309,-85.9643 L 33.85,-85.4684 L 33.89,-84.96
 L 33.85,-84.4516 L 33.7309,-83.9557 L 33.5358,-83.4845 L 33.2693,-83.0497 L 32.9381,-82.6619 L 32.5503,-82.3307
 L 32.1155,-82.0642 L 31.6443,-81.8691 L 31.1484,-81.75 L 30.64,-81.71 z
M 9.41336,-60.9362 L 8.84117,-61.0735 L 8.29753,-61.2987 L 7.79579,-61.6062 L 7.34834,-61.9883 L 6.96617,-62.4358
 L 6.65872,-62.9375 L 6.43353,-63.4812 L 6.29616,-64.0534 L 6.25,-64.64 L 6.29616,-65.2266 L 6.43353,-65.7988
 L 6.65872,-66.3425 L 6.96617,-66.8442 L 7.34834,-67.2916 L 7.79579,-67.6738 L 8.29753,-67.9813 L 8.84117,-68.2065
 L 9.41336,-68.3438 L 10,-68.39 L 10.5866,-68.3438 L 11.1588,-68.2065 L 11.7025,-67.9813 L 12.2042,-67.6738
 L 12.6516,-67.2916 L 13.0338,-66.8442 L 13.3413,-66.3425 L 13.5665,-65.7988 L 13.7038,-65.2266 L 13.75,-64.64
 L 13.7038,-64.0534 L 13.5665,-63.4812 L 13.3413,-62.9375 L 13.0338,-62.4358 L 12.6516,-61.9883 L 12.2042,-61.6062
 L 11.7025,-61.2987 L 11.1588,-61.0735 L 10.5866,-60.9362 L 10,-60.89 z
M 30.1316,-61.43 L 29.6357,-61.5491 L 29.1645,-61.7442 L 28.7297,-62.0107 L 28.3419,-62.3419 L 28.0107,-62.7297
 L 27.7442,-63.1645 L 27.5491,-63.6357 L 27.43,-64.1316 L 27.39,-64.64 L 27.43,-65.1484 L 27.5491,-65.6443
 L 27.7442,-66.1155 L 28.0107,-66.5503 L 28.3419,-66.9381 L 28.7297,-67.2693 L 29.1645,-67.5358 L 29.6357,-67.7309
 L 30.1316,-67.85 L 30.64,-67.89 L 31.1484,-67.85 L 31.6443,-67.7309 L 32.1155,-67.5358 L 32.5503,-67.2693
 L 32.9381,-66.9381 L 33.2693,-66.5503 L 33.5358,-66.1155 L 33.7309,-65.6443 L 33.85,-65.1484 L 33.89,-64.64
 L 33.85,-64.1316 L 33.7309,-63.6357 L 33.5358,-63.1645 L 33.2693,-62.7297 L 32.9381,-62.3419 L 32.5503,-62.0107
 L 32.1155,-61.7442 L 31.6443,-61.5491 L 31.1484,-61.43 L 30.64,-61.39 z
M 9.41336,-40.6162 L 8.84117,-40.7535 L 8.29753,-40.9787 L 7.79579,-41.2862 L 7.34834,-41.6684 L 6.96617,-42.1158
 L 6.65872,-42.6175 L 6.43353,-43.1612 L 6.29616,-43.7334 L 6.25,-44.32 L 6.29616,-44.9066 L 6.43353,-45.4788
 L 6.65872,-46.0225 L 6.96617,-46.5242 L 7.34834,-46.9716 L 7.79579,-47.3538 L 8.29753,-47.6613 L 8.84117,-47.8865
 L 9.41336,-48.0238 L 10,-48.07 L 10.5866,-48.0238 L 11.1588,-47.8865 L 11.7025,-47.6613 L 12.2042,-47.3538
 L 12.6516,-46.9716 L 13.0338,-46.5242 L 13.3413,-46.0225 L 13.5665,-45.4788 L 13.7038,-44.9066 L 13.75,-44.32
 L 13.7038,-43.7334 L 13.5665,-43.1612 L 13.3413,-42.6175 L 13.0338,-42.1158 L 12.6516,-41.6684 L 12.2042,-41.2862
 L 11.7025,-40.9787 L 11.1588,-40.7535 L 10.5866,-40.6162 L 10,-40.57 z
M 30.1316,-41.11 L 29.6357,-41.2291 L 29.1645,-41.4242 L 28.7297,-41.6907 L 28.3419,-42.0219 L 28.0107,-42.4097
 L 27.7442,-42.8445 L 27.5491,-43.3157 L 27.43,-43.8116 L 27.39,-44.32 L 27.43,-44.8284 L 27.5491,-45.3243
 L 27.7442,-45.7955 L 28.0107,-46.2303 L 28.3419,-46.6181 L 28.7297,-46.9493 L 29.1645,-47.2158 L 29.6357,-47.4109
 L 30.1316,-47.53 L 30.64,-47.57 L 31.1484,-47.53 L 31.6443,-47.4109 L 32.1155,-47.2158 L 32.5503,-46.9493
 L 32.9381,-46.6181 L 33.2693,-46.2303 L 33.5358,-45.7955 L 33.7309,-45.3243 L 33.85,-44.8284 L 33.89,-44.32
 L 33.85,-43.8116 L 33.7309,-43.3157 L 33.5358,-42.8445 L 33.2693,-42.4097 L 32.9381,-42.0219 L 32.5503,-41.6907
 L 32.1155,-41.4242 L 31.6443,-41.2291 L 31.1484,-41.11 L 30.64,-41.07 z
M 9.41336,-20.2962 L 8.84117,-20.4335 L 8.29753,-20.6587 L 7.79579,-20.9662 L 7.34834,-21.3483 L 6.96617,-21.7958
 L 6.65872,-22.2975 L 6.43353,-22.8412 L 6.29616,-23.4134 L 6.25,-24 L 6.29616,-24.5866 L 6.43353,-25.1588
 L 6.65872,-25.7025 L 6.96617,-26.2042 L 7.34834,-26.6516 L 7.79579,-27.0338 L 8.29753,-27.3413 L 8.84117,-27.5665
 L 9.41336,-27.7038 L 10,-27.75 L 10.5866,-27.7038 L 11.1588,-27.5665 L 11.7025,-27.3413 L 12.2042,-27.0338
 L 12.6516,-26.6516 L 13.0338,-26.2042 L 13.3413,-25.7025 L 13.5665,-25.1588 L 13.7038,-24.5866 L 13.75,-24
 L 13.7038,-23.4134 L 13.5665,-22.8412 L 13.3413,-22.2975 L 13.0338,-21.7958 L 12.6516,-21.3483 L 12.2042,-20.9662
 L 11.7025,-20.6587 L 11.1588,-20.4335 L 10.5866,-20.2962 L 10,-20.25 z
M 30.1316,-20.79 L 29.6357,-20.9091 L 29.1645,-21.1042 L 28.7297,-21.3707 L 28.3419,-21.7019 L 28.0107,-22.0897
 L 27.7442,-22.5245 L 27.5491,-22.9957 L 27.43,-23.4916 L 27.39,-24 L 27.43,-24.5084 L 27.5491,-25.0043
 L 27.7442,-25.4755 L 28.0107,-25.9103 L 28.3419,-26.2981 L 28.7297,-26.6293 L 29.1645,-26.8958 L 29.6357,-27.0909
 L 30.1316,-27.21 L 30.64,-27.25 L 31.1484,-27.21 L 31.6443,-27.0909 L 32.1155,-26.8958 L 32.5503,-26.6293
 L 32.9381,-26.2981 L 33.2693,-25.9103 L 33.5358,-25.4755 L 33.7309,-25.0043 L 33.85,-24.5084 L 33.89,-24
 L 33.85,-23.4916 L 33.7309,-22.9957 L 33.5358,-22.5245 L 33.2693,-22.0897 L 32.9381,-21.7019 L 32.5503,-21.3707
 L 32.1155,-21.1042 L 31.6443,-20.9091 L 31.1484,-20.79 L 30.64,-20.75 z
M 31.96,-1.8125 L 31.4656,-1.89081 L 31.0195,-2.11807 L 30.6656,-2.47203 L 30.4383,-2.91806 L 30.36,-3.41249
 L 30.4383,-3.90692 L 30.6656,-4.35295 L 31.0195,-4.70692 L 31.4656,-4.93419 L 31.96,-5.0125 L 33.84,-5.0125
 L 34.3344,-4.93419 L 34.7805,-4.70692 L 35.1344,-4.35295 L 35.3617,-3.90692 L 35.44,-3.41249 L 35.3617,-2.91806
 L 35.1344,-2.47203 L 34.7805,-2.11807 L 34.3344,-1.89081 L 33.84,-1.8125 z
M 6.56,-1.8125 L 6.06557,-1.89081 L 5.61954,-2.11807 L 5.26556,-2.47203 L 5.0383,-2.91806 L 4.95999,-3.41249
 L 5.0383,-3.90692 L 5.26556,-4.35295 L 5.61954,-4.70692 L 6.06557,-4.93419 L 6.56,-5.0125 L 8.43999,-5.0125
 L 8.93442,-4.93419 L 9.38045,-4.70692 L 9.73442,-4.35295 L 9.96169,-3.90692 L 10.04,-3.41249 L 9.96169,-2.91806
 L 9.73442,-2.47203 L 9.38045,-2.11807 L 8.93442,-1.89081 L 8.43999,-1.8125 z
" stroke="black" fill="lightgray" stroke-width="0.5"/>
</svg>
